<svg xmlns="http://www.w3.org/2000/svg" viewBox="0 0 48 48"><path fill="#F4511E" d="M44.2 21.5 26.5 3.8a2.59 2.59 0 0 0-3.6 0l-3.6 3.6 4.5 4.5c1-.4 2.2-.2 3 .6.8.8 1 2 .6 3l4.4 4.4a2.76 2.76 0 0 1 3.5 3.5 2.76 2.76 0 0 1-2.7 2.7 2.76 2.76 0 0 1-2.7-2.7c0-.4.1-.8.2-1.1l-4.1-4.1v10.8c.3.1.5.3.8.5a2.76 2.76 0 0 1 0 3.9 2.76 2.76 0 0 1-3.9 0 2.76 2.76 0 0 1 0-3.9c.3-.3.7-.5 1-.6V18.4c-.4-.1-.7-.3-1-.6-.8-.8-1-2-.6-3L17.4 10 3.8 23.7a2.59 2.59 0 0 0 0 3.6L21.5 45c1 1 2.6 1 3.6 0l19.1-19.1c1-1.1 1-2.6 0-3.4z"/></svg>