<svg xmlns="http://www.w3.org/2000/svg" viewBox="0 0 48 48"><rect width="36" height="36" x="6" y="6" fill="#1976D2" rx="3"/><path fill="#fff" d="M27.49 22H14.227v3.264h4.562V38h3.557V25.264h5.145zm5.306 3.796c.66-.528 1.521-.792 2.583-.792.802 0 1.515.109 2.14.327.624.218 1.168.513 1.631.884l-1.21 2.169a5.557 5.557 0 0 0-1.291-.703 3.905 3.905 0 0 0-1.364-.243c-.545 0-.955.127-1.229.384-.274.258-.411.606-.411 1.046 0 .24.043.45.127.632.084.183.226.345.424.484.199.14.405.265.62.377.214.112.477.232.788.36l.943.425c.415.188.802.395 1.161.62.359.225.675.494.948.806.273.312.483.678.629 1.097.146.42.219.914.219 1.483 0 .697-.137 1.31-.41 1.84-.273.53-.648.977-1.125 1.34a5.01 5.01 0 0 1-1.669.814 7.123 7.123 0 0 1-2.032.277c-.934 0-1.803-.149-2.607-.449-.804-.299-1.539-.747-2.207-1.344l1.35-2.268c.472.465 1.009.842 1.608 1.13.6.288 1.197.432 1.79.432.62 0 1.108-.146 1.463-.44.354-.293.531-.709.531-1.248 0-.273-.048-.51-.143-.712-.096-.202-.253-.38-.473-.533a4.15 4.15 0 0 0-.657-.39 8.429 8.429 0 0 0-.826-.35l-.943-.392a9.167 9.167 0 0 1-1.054-.493 4.323 4.323 0 0 1-.915-.709 3.32 3.32 0 0 1-.647-1.004c-.163-.39-.244-.854-.244-1.392.0-.612.116-1.163.347-1.653.232-.49.551-.908.959-1.254z"/></svg>